<svg width="32" height="32" viewBox="0 0 32 32" fill="none" xmlns="http://www.w3.org/2000/svg">
<rect width="32" height="32" rx="4" fill="#2E3032" fill-opacity="0.1"/>
<g clip-path="url(#clip0_33_80)">
<path d="M16 24C17.5823 24 19.129 23.5308 20.4446 22.6518C21.7602 21.7727 22.7855 20.5233 23.391 19.0615C23.9965 17.5997 24.155 15.9911 23.8463 14.4393C23.5376 12.8874 22.7757 11.462 21.6569 10.3431C20.538 9.22433 19.1126 8.4624 17.5607 8.15372C16.0089 7.84504 14.4003 8.00347 12.9385 8.60897C11.4767 9.21447 10.2273 10.2398 9.34824 11.5554C8.46919 12.871 8 14.4178 8 16C8.00229 18.121 8.84589 20.1545 10.3457 21.6543C11.8455 23.1541 13.879 23.9977 16 24ZM16 11.3333C16.1978 11.3333 16.3911 11.392 16.5556 11.5019C16.72 11.6117 16.8482 11.7679 16.9239 11.9507C16.9996 12.1334 17.0194 12.3344 16.9808 12.5284C16.9422 12.7224 16.847 12.9006 16.7071 13.0404C16.5673 13.1803 16.3891 13.2755 16.1951 13.3141C16.0011 13.3527 15.8 13.3329 15.6173 13.2572C15.4346 13.1815 15.2784 13.0534 15.1685 12.8889C15.0586 12.7245 15 12.5311 15 12.3333C15 12.0681 15.1054 11.8138 15.2929 11.6262C15.4804 11.4387 15.7348 11.3333 16 11.3333ZM15.3333 14.6667H16C16.3536 14.6667 16.6928 14.8071 16.9428 15.0572C17.1929 15.3072 17.3333 15.6464 17.3333 16V20C17.3333 20.1768 17.2631 20.3464 17.1381 20.4714C17.013 20.5964 16.8435 20.6667 16.6667 20.6667C16.4899 20.6667 16.3203 20.5964 16.1953 20.4714C16.0702 20.3464 16 20.1768 16 20V16H15.3333C15.1565 16 14.987 15.9298 14.8619 15.8047C14.7369 15.6797 14.6667 15.5101 14.6667 15.3333C14.6667 15.1565 14.7369 14.987 14.8619 14.8619C14.987 14.7369 15.1565 14.6667 15.3333 14.6667Z" fill="#2E3032"/>
</g>
<defs>
<clipPath id="clip0_33_80">
<rect width="16" height="16" fill="white" transform="translate(8 8)"/>
</clipPath>
</defs>
</svg>
