<svg width="90" height="92" viewBox="0 0 90 92" fill="none" xmlns="http://www.w3.org/2000/svg">
<g filter="url(#filter0_d_29_50)">
<circle cx="44" cy="42" r="24" fill="white"/>
<circle cx="44" cy="42" r="27.5" stroke="#1997CE"/>
</g>
<path d="M44.2794 26.5308C44.4505 26.699 44.5862 26.8988 44.6788 27.1186C44.7714 27.3384 44.819 27.574 44.819 27.812C44.819 28.0499 44.7714 28.2855 44.6788 28.5054C44.5862 28.7252 44.4505 28.9249 44.2794 29.0931L35.3443 37.8812C34.4521 38.759 33.9508 39.9495 33.9508 41.1908C33.9508 42.4321 34.4521 43.6226 35.3443 44.5004L36.4309 45.5682C37.3155 46.4386 38.513 46.931 39.7642 46.939C41.0153 46.9469 42.2192 46.4696 43.1151 45.6105L43.1591 45.5682C43.1734 45.5541 43.1877 45.54 43.201 45.5249L46.8843 41.9079C47.2321 41.5802 47.6965 41.3995 48.1781 41.4045C48.6597 41.4096 49.1201 41.6001 49.4606 41.935C49.8011 42.27 49.9947 42.7229 49.9999 43.1966C50.0051 43.6703 49.8214 44.1271 49.4882 44.4692L39.7991 54L32.2851 46.6139C31.5607 45.902 30.986 45.0566 30.5939 44.126C30.2018 43.1955 30 42.1981 30 41.1908C30 40.1835 30.2018 39.1861 30.5939 38.2556C30.986 37.325 31.5607 36.4796 32.2851 35.7677L41.6745 26.5308C41.8455 26.3625 42.0485 26.229 42.272 26.138C42.4955 26.0469 42.735 26 42.9769 26C43.2188 26 43.4584 26.0469 43.6818 26.138C43.9053 26.229 44.1084 26.3625 44.2794 26.5308Z" fill="#1997CE"/>
<path d="M48.1901 30L55.7118 37.6497C56.5024 38.4511 57.1135 39.4168 57.5033 40.4807C57.6216 40.8003 57.7189 41.1277 57.7943 41.4605C58.0973 42.776 58.0651 44.1484 57.7006 45.4477C57.3362 46.747 56.6516 47.9301 55.7118 48.885L46.3064 58.4505C45.9602 58.8024 45.4908 59.0001 45.0013 59C44.5119 58.9999 44.0425 58.8021 43.6965 58.45C43.3505 58.098 43.1561 57.6205 43.1562 57.1228C43.1563 56.625 43.3508 56.1476 43.697 55.7957L52.6473 46.693C53.0907 46.2434 53.4425 45.7093 53.6825 45.1212C53.9226 44.5331 54.0461 43.9026 54.0461 43.2658C54.0461 42.629 53.9226 41.9985 53.6825 41.4104C53.4425 40.8223 53.0907 40.2882 52.6473 39.8386L51.5599 38.7337C51.1175 38.2835 50.5921 37.9264 50.0139 37.6828C49.4357 37.4391 48.816 37.3137 48.1901 37.3137C47.5642 37.3137 46.9445 37.4391 46.3663 37.6828C45.7881 37.9264 45.2627 38.2835 44.8203 38.7337L41.0886 42.5289C40.7379 42.8545 40.2773 43.0301 39.8025 43.019C39.3278 43.0079 38.8755 42.8111 38.5398 42.4694C38.2042 42.1278 38.011 41.6677 38.0005 41.1848C37.9899 40.702 38.1629 40.2336 38.4834 39.8772L48.1901 30Z" fill="#2E3032"/>
<defs>
<filter id="filter0_d_29_50" x="-2" y="0" width="92" height="92" filterUnits="userSpaceOnUse" color-interpolation-filters="sRGB">
<feFlood flood-opacity="0" result="BackgroundImageFix"/>
<feColorMatrix in="SourceAlpha" type="matrix" values="0 0 0 0 0 0 0 0 0 0 0 0 0 0 0 0 0 0 127 0" result="hardAlpha"/>
<feOffset dy="4"/>
<feGaussianBlur stdDeviation="9"/>
<feComposite in2="hardAlpha" operator="out"/>
<feColorMatrix type="matrix" values="0 0 0 0 0.180392 0 0 0 0 0.188235 0 0 0 0 0.196078 0 0 0 0.18 0"/>
<feBlend mode="normal" in2="BackgroundImageFix" result="effect1_dropShadow_29_50"/>
<feBlend mode="normal" in="SourceGraphic" in2="effect1_dropShadow_29_50" result="shape"/>
</filter>
</defs>
</svg>
