<svg width="32" height="32" viewBox="0 0 32 32" fill="none" xmlns="http://www.w3.org/2000/svg">
<rect width="32" height="32" rx="4" fill="#2E3032" fill-opacity="0.1"/>
<path d="M17.0353 11.386C17.6827 10.78 18.598 9.81267 18.9647 8.89C19.1347 8.46267 18.7933 8 18.3333 8H14.3333C13.8733 8 13.532 8.462 13.702 8.89C14.0687 9.81267 14.984 10.78 15.6313 11.386C12.046 11.9187 9 16.412 9 20C9 22.206 10.794 24 13 24H19.6667C21.8727 24 23.6667 22.206 23.6667 20C23.6667 16.412 20.6207 11.9187 17.0353 11.386ZM15.4293 17.174L17.4573 17.512C18.3513 17.6607 19.0007 18.4273 19.0007 19.334C19.0007 20.4367 18.1033 21.334 17.0007 21.334V22.0007C17.0007 22.3687 16.702 22.6673 16.334 22.6673C15.966 22.6673 15.6673 22.3687 15.6673 22.0007V21.334H15.4887C14.7767 21.334 14.1133 20.9513 13.7567 20.3347C13.5727 20.016 13.6813 19.6087 14 19.424C14.3173 19.2393 14.726 19.348 14.9107 19.6673C15.0293 19.8727 15.2513 20.0007 15.4887 20.0007H17.0007C17.368 20.0007 17.6673 19.7013 17.6673 19.334C17.6673 19.082 17.4867 18.8687 17.238 18.8273L15.21 18.4893C14.316 18.3407 13.6667 17.574 13.6667 16.6673C13.6667 15.5647 14.564 14.6673 15.6667 14.6673V14.0007C15.6667 13.6327 15.9653 13.334 16.3333 13.334C16.7013 13.334 17 13.6327 17 14.0007V14.6673H17.1787C17.89 14.6673 18.554 15.0507 18.9107 15.6673C19.0947 15.986 18.986 16.3933 18.6673 16.578C18.3493 16.7627 17.9413 16.654 17.7567 16.3347C17.6373 16.1287 17.416 16.0013 17.1787 16.0013H15.6667C15.2993 16.0013 15 16.3007 15 16.668C15 16.92 15.1807 17.1333 15.4293 17.1747V17.174Z" fill="#2E3032"/>
</svg>
