<svg width="32" height="32" viewBox="0 0 32 32" fill="none" xmlns="http://www.w3.org/2000/svg">
<rect width="32" height="32" rx="4" fill="#2E3032" fill-opacity="0.1"/>
<g clip-path="url(#clip0_33_82)">
<path d="M22.6667 17.6913V16.6667C22.6667 15.196 21.4707 14 20 14C18.5293 14 17.3333 15.196 17.3333 16.6667V17.6913C16.5367 18.1533 16 19.0153 16 20V21.3333C16 22.804 17.196 24 18.6667 24H21.3333C22.804 24 24 22.804 24 21.3333V20C24 19.0153 23.4633 18.1533 22.6667 17.6913ZM20 21.6667C19.448 21.6667 19 21.2187 19 20.6667C19 20.1147 19.448 19.6667 20 19.6667C20.552 19.6667 21 20.1147 21 20.6667C21 21.2187 20.552 21.6667 20 21.6667ZM21.3333 17.3333H18.6667V16.6667C18.6667 15.9313 19.2647 15.3333 20 15.3333C20.7353 15.3333 21.3333 15.9313 21.3333 16.6667V17.3333ZM13.3333 16C15.5393 16 17.3333 14.206 17.3333 12C17.3333 9.794 15.5393 8 13.3333 8C11.1273 8 9.33333 9.794 9.33333 12C9.33333 14.206 11.1273 16 13.3333 16ZM14.6667 21.3333C14.6667 22.3567 15.0533 23.292 15.688 24H8.66667C8.29867 24 8 23.7013 8 23.3333V22.8473C8 20.104 9.99533 17.674 12.722 17.368C13.362 17.296 13.9827 17.3387 14.566 17.4773C14.9767 17.5747 15.1573 18.0367 14.9907 18.424C14.7827 18.908 14.6667 19.4407 14.6667 20V21.3333Z" fill="#2E3032"/>
</g>
<defs>
<clipPath id="clip0_33_82">
<rect width="16" height="16" fill="white" transform="translate(8 8)"/>
</clipPath>
</defs>
</svg>
