<svg width="32" height="32" viewBox="0 0 32 32" fill="none" xmlns="http://www.w3.org/2000/svg">
<rect width="32" height="32" rx="4" fill="#2E3032" fill-opacity="0.1"/>
<g clip-path="url(#clip0_33_81)">
<path d="M16.5573 8.01935C14.2413 7.86269 11.974 8.71002 10.3387 10.3474C8.70332 11.9847 7.85932 14.252 8.01999 16.5694C8.31332 20.8054 12.0547 24 16.7227 24H20.6673C22.5053 24 24.0007 22.5047 24.0007 20.6667V16.2267C24 11.908 20.7307 8.30269 16.5573 8.01935ZM12.6667 17C12.1147 17 11.6667 16.552 11.6667 16C11.6667 15.448 12.1147 15 12.6667 15C13.2187 15 13.6667 15.448 13.6667 16C13.6667 16.552 13.2187 17 12.6667 17ZM16 17C15.448 17 15 16.552 15 16C15 15.448 15.448 15 16 15C16.552 15 17 15.448 17 16C17 16.552 16.552 17 16 17ZM19.3333 17C18.7813 17 18.3333 16.552 18.3333 16C18.3333 15.448 18.7813 15 19.3333 15C19.8853 15 20.3333 15.448 20.3333 16C20.3333 16.552 19.8853 17 19.3333 17Z" fill="#2E3032"/>
</g>
<defs>
<clipPath id="clip0_33_81">
<rect width="16" height="16" fill="white" transform="translate(8 8)"/>
</clipPath>
</defs>
</svg>
